<svg xmlns="http://www.w3.org/2000/svg" xmlns:xlink="http://www.w3.org/1999/xlink" width="500" zoomAndPan="magnify" viewBox="0 0 375 374.999991" height="500" preserveAspectRatio="xMidYMid meet" version="1.0"><defs><g/><clipPath id="8e34ee6e3c"><path d="M 49.378906 136.253906 L 119.878906 136.253906 L 119.878906 218.753906 L 49.378906 218.753906 Z M 49.378906 136.253906 " clip-rule="nonzero"/></clipPath></defs><g clip-path="url(#8e34ee6e3c)"><path fill="#fbc50c" d="M 101.589844 163.699219 L 96.925781 163.699219 L 99.699219 160.492188 C 100.335938 160.644531 100.992188 160.726562 101.679688 160.726562 C 106.316406 160.726562 110.101562 156.960938 110.132812 152.324219 C 110.160156 147.660156 106.386719 143.84375 101.679688 143.824219 C 97.046875 143.824219 93.25 147.589844 93.230469 152.222656 C 93.21875 153.417969 93.464844 154.601562 93.9375 155.683594 L 87.117188 163.699219 L 84.132812 163.699219 L 75.609375 153.164062 C 76.683594 151.433594 77.269531 149.429688 77.292969 147.375 C 77.3125 144.421875 76.179688 141.636719 74.101562 139.542969 C 72.027344 137.4375 69.265625 136.273438 66.238281 136.253906 C 60.1875 136.253906 55.230469 141.183594 55.1875 147.246094 C 55.167969 150.199219 56.300781 152.984375 58.375 155.089844 C 60.449219 157.191406 63.222656 158.355469 66.238281 158.378906 C 67.027344 158.378906 67.820312 158.296875 68.578125 158.132812 L 73.0625 163.722656 L 67.34375 163.722656 C 59.257812 163.699219 49.398438 166.140625 49.398438 182.847656 L 49.398438 200.507812 C 49.398438 210.386719 57.476562 218.460938 67.351562 218.460938 L 101.589844 218.460938 C 111.457031 218.460938 119.542969 210.386719 119.542969 200.507812 L 119.542969 182.847656 C 119.542969 168 109.675781 163.699219 101.589844 163.699219 Z M 103.390625 208.089844 L 65.550781 208.089844 C 62.769531 208.089844 60.421875 205.742188 60.421875 202.957031 L 60.441406 182.847656 L 60.441406 179.78125 C 60.542969 177.078125 62.839844 174.832031 65.550781 174.832031 L 103.390625 174.832031 C 106.175781 174.832031 108.523438 177.179688 108.523438 179.964844 L 108.503906 200.082031 L 108.523438 200.082031 L 108.523438 202.957031 C 108.523438 205.742188 106.175781 208.089844 103.390625 208.089844 Z M 103.390625 208.089844 " fill-opacity="1" fill-rule="nonzero"/></g><path fill="#ffffff" d="M 76.835938 197.410156 C 76.816406 194.152344 76.796875 188.808594 76.773438 185.550781 C 76.753906 182.292969 79.195312 180.945312 81.988281 182.554688 C 84.769531 184.175781 89.425781 186.816406 92.207031 188.433594 C 94.992188 190.054688 95.050781 192.714844 92.277344 194.363281 C 89.507812 196.015625 84.820312 198.707031 82.046875 200.347656 C 79.285156 201.996094 76.847656 200.671875 76.835938 197.410156 Z M 76.835938 197.410156 " fill-opacity="1" fill-rule="nonzero"/><g fill="#ffffff" fill-opacity="1"><g transform="translate(125.338604, 201.17349)"><g><path d="M 15.25 0 L 10.96875 0 L 10.96875 -33.453125 L 1.34375 -33.453125 L 1.34375 -37.46875 L 24.890625 -37.46875 L 24.890625 -33.453125 L 15.25 -33.453125 Z M 15.25 0 "/></g></g></g><g fill="#ffffff" fill-opacity="1"><g transform="translate(149.480588, 201.17349)"><g><path d="M 13.703125 -6.203125 L 22.53125 -26.234375 L 26.765625 -26.234375 L 14.984375 0 L 12.3125 0 L 0.53125 -26.234375 L 4.875 -26.234375 Z M 13.703125 -6.203125 "/></g></g></g><g fill="#fcc509" fill-opacity="1"><g transform="translate(187.499992, 201.17349)"><g><path d="M 16.0625 -37.46875 C 18.445312 -37.46875 20.554688 -37.003906 22.390625 -36.078125 C 24.234375 -35.148438 25.660156 -33.875 26.671875 -32.25 C 27.691406 -30.625 28.203125 -28.796875 28.203125 -26.765625 C 28.203125 -24.734375 27.691406 -22.90625 26.671875 -21.28125 C 25.660156 -19.65625 24.234375 -18.378906 22.390625 -17.453125 C 20.554688 -16.523438 18.445312 -16.0625 16.0625 -16.0625 L 9.375 -16.0625 L 9.375 0 L 5.078125 0 L 5.078125 -37.46875 Z M 16.0625 -20.078125 C 18.414062 -20.078125 20.285156 -20.679688 21.671875 -21.890625 C 23.066406 -23.109375 23.765625 -24.734375 23.765625 -26.765625 C 23.765625 -28.796875 23.066406 -30.414062 21.671875 -31.625 C 20.285156 -32.84375 18.414062 -33.453125 16.0625 -33.453125 L 9.375 -33.453125 L 9.375 -20.078125 Z M 16.0625 -20.078125 "/></g></g></g><g fill="#fcc509" fill-opacity="1"><g transform="translate(215.496186, 201.17349)"><g><path d="M 16.59375 -26.765625 C 18.695312 -26.765625 20.5625 -26.253906 22.1875 -25.234375 C 23.8125 -24.222656 25.066406 -22.84375 25.953125 -21.09375 C 26.847656 -19.34375 27.296875 -17.394531 27.296875 -15.25 L 27.296875 0 L 23.28125 0 L 23.28125 -15.25 C 23.28125 -17.570312 22.640625 -19.445312 21.359375 -20.875 C 20.078125 -22.300781 18.3125 -23.015625 16.0625 -23.015625 C 14.632812 -23.015625 13.332031 -22.679688 12.15625 -22.015625 C 10.976562 -21.359375 10.039062 -20.441406 9.34375 -19.265625 C 8.644531 -18.085938 8.296875 -16.75 8.296875 -15.25 L 8.296875 0 L 4.28125 0 L 4.28125 -38.546875 L 8.296875 -38.546875 L 8.296875 -22.75 C 9.367188 -24.070312 10.609375 -25.070312 12.015625 -25.75 C 13.421875 -26.425781 14.945312 -26.765625 16.59375 -26.765625 Z M 16.59375 -26.765625 "/></g></g></g><g fill="#fcc509" fill-opacity="1"><g transform="translate(244.455936, 201.17349)"><g><path d="M 8.03125 0 L 4.015625 0 L 4.015625 -26.234375 L 8.03125 -26.234375 Z M 8.34375 -31.265625 L 3.6875 -31.265625 L 3.6875 -36.1875 L 8.34375 -36.1875 Z M 8.34375 -31.265625 "/></g></g></g><g fill="#fcc509" fill-opacity="1"><g transform="translate(254.412226, 201.17349)"><g><path d="M 32.921875 -26.765625 C 34.847656 -26.765625 36.5625 -26.273438 38.0625 -25.296875 C 39.5625 -24.316406 40.726562 -22.976562 41.5625 -21.28125 C 42.40625 -19.582031 42.828125 -17.664062 42.828125 -15.53125 L 42.828125 0 L 38.8125 0 L 38.8125 -15.53125 C 38.8125 -17.707031 38.226562 -19.5 37.0625 -20.90625 C 35.90625 -22.3125 34.347656 -23.015625 32.390625 -23.015625 C 31.140625 -23.015625 29.988281 -22.679688 28.9375 -22.015625 C 27.882812 -21.359375 27.035156 -20.457031 26.390625 -19.3125 C 25.742188 -18.175781 25.421875 -16.914062 25.421875 -15.53125 L 25.421875 0 L 21.40625 0 L 21.40625 -15.53125 C 21.40625 -17.707031 20.828125 -19.5 19.671875 -20.90625 C 18.515625 -22.3125 16.953125 -23.015625 14.984375 -23.015625 C 13.734375 -23.015625 12.582031 -22.679688 11.53125 -22.015625 C 10.476562 -21.359375 9.628906 -20.457031 8.984375 -19.3125 C 8.347656 -18.175781 8.03125 -16.914062 8.03125 -15.53125 L 8.03125 0 L 4.015625 0 L 4.015625 -26.234375 L 8.03125 -26.234375 L 8.03125 -22.75 C 8.957031 -24.070312 10.0625 -25.070312 11.34375 -25.75 C 12.632812 -26.425781 14.03125 -26.765625 15.53125 -26.765625 C 17.34375 -26.765625 19.023438 -26.273438 20.578125 -25.296875 C 22.128906 -24.316406 23.300781 -23.019531 24.09375 -21.40625 C 25.019531 -23.125 26.25 -24.445312 27.78125 -25.375 C 29.3125 -26.300781 31.023438 -26.765625 32.921875 -26.765625 Z M 32.921875 -26.765625 "/></g></g></g><g fill="#fcc509" fill-opacity="1"><g transform="translate(134.852955, 216.654042)"><g><path d="M 0.25 0 L 2.75 -3.546875 L 0.25 -7.09375 L 2.03125 -7.09375 L 3.8125 -4.59375 L 5.59375 -7.09375 L 7.359375 -7.09375 L 4.859375 -3.546875 L 7.359375 0 L 5.59375 0 L 3.8125 -2.46875 L 2.03125 0 Z M 0.25 0 "/></g></g></g><g fill="#fcc509" fill-opacity="1"><g transform="translate(145.22538, 216.654042)"><g><path d="M 0.625 0 L 0.625 -7.09375 L 5.84375 -7.09375 L 5.84375 -5.859375 L 2.25 -5.859375 L 2.25 -4.125 L 5.046875 -4.125 L 5.046875 -2.890625 L 2.25 -2.890625 L 2.25 -1.234375 L 5.84375 -1.234375 L 5.84375 0 Z M 0.625 0 "/></g></g></g><g fill="#fcc509" fill-opacity="1"><g transform="translate(154.26334, 216.654042)"><g><path d="M 0.5 0 L 0.609375 -1.65625 C 0.617188 -1.976562 0.640625 -2.378906 0.671875 -2.859375 C 0.671875 -2.867188 0.753906 -4.28125 0.921875 -7.09375 L 3.671875 -7.09375 L 5.15625 -2.4375 L 6.625 -7.09375 L 9.390625 -7.09375 C 9.453125 -6.101562 9.5 -5.28125 9.53125 -4.625 C 9.59375 -3.457031 9.65625 -2.46875 9.71875 -1.65625 C 9.71875 -1.5 9.722656 -1.300781 9.734375 -1.0625 C 9.753906 -0.820312 9.769531 -0.59375 9.78125 -0.375 C 9.800781 -0.164062 9.8125 -0.0390625 9.8125 0 L 8.140625 0 L 7.8125 -5.671875 L 6 0 L 4.296875 0 L 2.5 -5.671875 L 2.15625 0 Z M 0.5 0 "/></g></g></g><g fill="#fcc509" fill-opacity="1"><g transform="translate(167.328959, 216.654042)"><g/></g></g><g fill="#fcc509" fill-opacity="1"><g transform="translate(172.375651, 216.654042)"><g><path d="M 0.625 0 L 0.625 -7.09375 L 3.828125 -7.09375 C 4.753906 -7.09375 5.46875 -6.851562 5.96875 -6.375 C 6.476562 -5.894531 6.734375 -5.3125 6.734375 -4.625 C 6.734375 -3.9375 6.476562 -3.347656 5.96875 -2.859375 C 5.46875 -2.367188 4.753906 -2.125 3.828125 -2.125 L 2.25 -2.125 L 2.25 0 Z M 2.25 -3.359375 L 3.859375 -3.359375 C 4.222656 -3.359375 4.519531 -3.46875 4.75 -3.6875 C 4.976562 -3.914062 5.09375 -4.21875 5.09375 -4.59375 C 5.09375 -4.976562 4.976562 -5.285156 4.75 -5.515625 C 4.519531 -5.742188 4.222656 -5.859375 3.859375 -5.859375 L 2.25 -5.859375 Z M 2.25 -3.359375 "/></g></g></g><g fill="#fcc509" fill-opacity="1"><g transform="translate(182.117233, 216.654042)"><g><path d="M 0.625 0 L 0.625 -7.09375 L 2.25 -7.09375 L 2.25 -4.03125 L 5.171875 -4.03125 L 5.171875 -7.09375 L 6.8125 -7.09375 L 6.8125 0 L 5.171875 0 L 5.171875 -2.78125 L 2.25 -2.78125 L 2.25 0 Z M 0.625 0 "/></g></g></g><g fill="#fcc509" fill-opacity="1"><g transform="translate(192.307677, 216.654042)"><g><path d="M 0.625 0 L 0.625 -7.09375 L 2.265625 -7.09375 L 2.265625 0 Z M 0.625 0 "/></g></g></g><g fill="#fcc509" fill-opacity="1"><g transform="translate(197.960947, 216.654042)"><g><path d="M 0.5 0 L 0.609375 -1.65625 C 0.617188 -1.976562 0.640625 -2.378906 0.671875 -2.859375 C 0.671875 -2.867188 0.753906 -4.28125 0.921875 -7.09375 L 3.671875 -7.09375 L 5.15625 -2.4375 L 6.625 -7.09375 L 9.390625 -7.09375 C 9.453125 -6.101562 9.5 -5.28125 9.53125 -4.625 C 9.59375 -3.457031 9.65625 -2.46875 9.71875 -1.65625 C 9.71875 -1.5 9.722656 -1.300781 9.734375 -1.0625 C 9.753906 -0.820312 9.769531 -0.59375 9.78125 -0.375 C 9.800781 -0.164062 9.8125 -0.0390625 9.8125 0 L 8.140625 0 L 7.8125 -5.671875 L 6 0 L 4.296875 0 L 2.5 -5.671875 L 2.15625 0 Z M 0.5 0 "/></g></g></g><g fill="#fcc509" fill-opacity="1"><g transform="translate(211.026567, 216.654042)"><g/></g></g><g fill="#fcc509" fill-opacity="1"><g transform="translate(216.07326, 216.654042)"><g><path d="M 4.03125 0.078125 C 2.789062 0.078125 1.835938 -0.332031 1.171875 -1.15625 C 0.640625 -1.8125 0.375 -2.585938 0.375 -3.484375 C 0.375 -4.429688 0.640625 -5.253906 1.171875 -5.953125 C 1.835938 -6.796875 2.789062 -7.21875 4.03125 -7.21875 C 5.257812 -7.21875 6.210938 -6.796875 6.890625 -5.953125 C 7.410156 -5.273438 7.671875 -4.453125 7.671875 -3.484375 C 7.671875 -2.578125 7.410156 -1.800781 6.890625 -1.15625 C 6.210938 -0.332031 5.257812 0.078125 4.03125 0.078125 Z M 2.5625 -1.796875 C 2.925781 -1.367188 3.414062 -1.15625 4.03125 -1.15625 C 4.644531 -1.15625 5.128906 -1.367188 5.484375 -1.796875 C 5.847656 -2.234375 6.03125 -2.796875 6.03125 -3.484375 C 6.03125 -4.210938 5.847656 -4.8125 5.484375 -5.28125 C 5.128906 -5.757812 4.644531 -6 4.03125 -6 C 3.414062 -6 2.925781 -5.757812 2.5625 -5.28125 C 2.195312 -4.8125 2.015625 -4.210938 2.015625 -3.484375 C 2.015625 -2.796875 2.195312 -2.234375 2.5625 -1.796875 Z M 2.5625 -1.796875 "/></g></g></g><g fill="#fcc509" fill-opacity="1"><g transform="translate(226.882422, 216.654042)"><g><path d="M 0.625 0 L 0.625 -7.09375 L 2.59375 -7.09375 L 5.734375 -1.9375 L 5.734375 -7.09375 L 7.375 -7.09375 L 7.375 0 L 5.140625 0 L 2.25 -4.71875 L 2.25 0 Z M 0.625 0 "/></g></g></g><g fill="#fcc509" fill-opacity="1"><g transform="translate(237.630914, 216.654042)"><g><path d="M 0.625 0 L 0.625 -7.09375 L 2.25 -7.09375 L 2.25 -1.234375 L 5.90625 -1.234375 L 5.90625 0 Z M 0.625 0 "/></g></g></g><g fill="#fcc509" fill-opacity="1"><g transform="translate(246.608203, 216.654042)"><g><path d="M 0.625 0 L 0.625 -7.09375 L 2.265625 -7.09375 L 2.265625 0 Z M 0.625 0 "/></g></g></g><g fill="#fcc509" fill-opacity="1"><g transform="translate(252.261473, 216.654042)"><g><path d="M 0.625 0 L 0.625 -7.09375 L 2.59375 -7.09375 L 5.734375 -1.9375 L 5.734375 -7.09375 L 7.375 -7.09375 L 7.375 0 L 5.140625 0 L 2.25 -4.71875 L 2.25 0 Z M 0.625 0 "/></g></g></g><g fill="#fcc509" fill-opacity="1"><g transform="translate(263.009965, 216.654042)"><g><path d="M 0.625 0 L 0.625 -7.09375 L 5.84375 -7.09375 L 5.84375 -5.859375 L 2.25 -5.859375 L 2.25 -4.125 L 5.046875 -4.125 L 5.046875 -2.890625 L 2.25 -2.890625 L 2.25 -1.234375 L 5.84375 -1.234375 L 5.84375 0 Z M 0.625 0 "/></g></g></g></svg>